<svg width="18" height="18" viewBox="0 0 18 18" fill="none" xmlns="http://www.w3.org/2000/svg">
<g clip-path="url(#clip0_39_61)">
<path d="M7.10352 11.5559C7.10352 12.2906 6.72 13.493 5.81222 13.493C4.90445 13.493 4.52093 12.2906 4.52093 11.5559C4.52093 10.8211 4.90445 9.61875 5.81222 9.61875C6.72 9.61875 7.10352 10.8211 7.10352 11.5559ZM17.4444 9.78047C17.4444 10.902 17.3319 12.0902 16.8287 13.1203C15.4952 15.8133 11.8289 15.75 9.20408 15.75C6.53704 15.75 2.65259 15.8449 1.2663 13.1203C0.752594 12.1008 0.555557 10.902 0.555557 9.78047C0.555557 8.30742 1.04463 6.91523 2.01574 5.78672C1.83278 5.23125 1.74482 4.64766 1.74482 4.07109C1.74482 3.31523 1.91722 2.93555 2.25852 2.25C3.85241 2.25 4.87278 2.56641 6.08667 3.51562C7.10704 3.27305 8.15556 3.16406 9.20759 3.16406C10.1576 3.16406 11.1146 3.26602 12.0365 3.4875C13.2328 2.54883 14.2531 2.25 15.8294 2.25C16.1743 2.93555 16.3432 3.31523 16.3432 4.07109C16.3432 4.64766 16.2517 5.2207 16.0722 5.76562C17.0398 6.90469 17.4444 8.30742 17.4444 9.78047ZM15.182 11.5559C15.182 10.0125 14.2426 8.65195 12.5959 8.65195C11.9309 8.65195 11.2941 8.77148 10.6256 8.86289C10.1013 8.94375 9.57704 8.97539 9.03871 8.97539C8.50389 8.97539 7.97963 8.94375 7.45185 8.86289C6.79389 8.77148 6.15 8.65195 5.48148 8.65195C3.83482 8.65195 2.89537 10.0125 2.89537 11.5559C2.89537 14.6426 5.72426 15.1172 8.18722 15.1172H9.88315C12.3567 15.1172 15.182 14.6461 15.182 11.5559ZM12.2757 9.61875C11.368 9.61875 10.9844 10.8211 10.9844 11.5559C10.9844 12.2906 11.368 13.493 12.2757 13.493C13.1835 13.493 13.567 12.2906 13.567 11.5559C13.567 10.8211 13.1835 9.61875 12.2757 9.61875Z" fill="#F2F2F2"/>
</g>
<defs>
<clipPath id="clip0_39_61">
<rect width="16.8889" height="18" fill="#F2F2F2" transform="translate(0.555557)"/>
</clipPath>
</defs>
</svg>
