<svg width="18" height="18" viewBox="0 0 18 18" fill="none" xmlns="http://www.w3.org/2000/svg">
<g clip-path="url(#clip0_39_79)">
<path d="M12.375 9C12.375 9.78047 12.3328 10.5328 12.259 11.25H5.74102C5.66367 10.5328 5.625 9.78047 5.625 9C5.625 8.21953 5.66719 7.46719 5.74102 6.75H12.259C12.3363 7.46719 12.375 8.21953 12.375 9ZM13.3875 6.75H17.7152C17.9016 7.4707 18 8.22305 18 9C18 9.77695 17.9016 10.5293 17.7152 11.25H13.3875C13.4613 10.5258 13.5 9.77344 13.5 9C13.5 8.22656 13.4613 7.47422 13.3875 6.75ZM17.3461 5.625H13.2434C12.8918 3.37852 12.1957 1.49766 11.2992 0.295312C14.052 1.02305 16.2914 3.01992 17.3426 5.625H17.3461ZM12.1043 5.625H5.8957C6.11016 4.34531 6.44062 3.21328 6.84492 2.2957C7.21406 1.46602 7.62539 0.864844 8.02266 0.485156C8.41641 0.1125 8.74336 0 9 0C9.25664 0 9.58359 0.1125 9.97734 0.485156C10.3746 0.864844 10.7859 1.46602 11.1551 2.2957C11.5629 3.20977 11.8898 4.3418 12.1043 5.625ZM4.75664 5.625H0.653906C1.70859 3.01992 3.94453 1.02305 6.70078 0.295312C5.8043 1.49766 5.1082 3.37852 4.75664 5.625ZM0.284766 6.75H4.6125C4.53867 7.47422 4.5 8.22656 4.5 9C4.5 9.77344 4.53867 10.5258 4.6125 11.25H0.284766C0.0984375 10.5293 0 9.77695 0 9C0 8.22305 0.0984375 7.4707 0.284766 6.75ZM6.84492 15.7008C6.43711 14.7867 6.11016 13.6547 5.8957 12.375H12.1043C11.8898 13.6547 11.5594 14.7867 11.1551 15.7008C10.7859 16.5305 10.3746 17.1316 9.97734 17.5113C9.58359 17.8875 9.25664 18 9 18C8.74336 18 8.41641 17.8875 8.02266 17.5148C7.62539 17.1352 7.21406 16.534 6.84492 15.7043V15.7008ZM4.75664 12.375C5.1082 14.6215 5.8043 16.5023 6.70078 17.7047C3.94453 16.977 1.70859 14.9801 0.653906 12.375H4.75664ZM17.3461 12.375C16.2914 14.9801 14.0555 16.977 11.3027 17.7047C12.1992 16.5023 12.8918 14.6215 13.2469 12.375H17.3461Z" fill="#F2F2F2"/>
</g>
<defs>
<clipPath id="clip0_39_79">
<rect width="18" height="18" fill="#F2F2F2"/>
</clipPath>
</defs>
</svg>
