<svg width="19" height="18" viewBox="0 0 19 18" fill="none" xmlns="http://www.w3.org/2000/svg">
<g clip-path="url(#clip0_46_13)">
<path d="M6.40625 2.8125C5.93867 2.8125 5.5625 3.18867 5.5625 3.65625V14.3438C5.5625 14.6391 5.51328 14.9238 5.41836 15.1875H15.9688C16.4363 15.1875 16.8125 14.8113 16.8125 14.3438V3.65625C16.8125 3.18867 16.4363 2.8125 15.9688 2.8125H6.40625ZM3.03125 16.875C1.63203 16.875 0.5 15.743 0.5 14.3438V3.9375C0.5 3.46992 0.876172 3.09375 1.34375 3.09375C1.81133 3.09375 2.1875 3.46992 2.1875 3.9375V14.3438C2.1875 14.8113 2.56367 15.1875 3.03125 15.1875C3.49883 15.1875 3.875 14.8113 3.875 14.3438V3.65625C3.875 2.25703 5.00703 1.125 6.40625 1.125H15.9688C17.368 1.125 18.5 2.25703 18.5 3.65625V14.3438C18.5 15.743 17.368 16.875 15.9688 16.875H3.03125ZM6.6875 4.78125C6.6875 4.31367 7.06367 3.9375 7.53125 3.9375H10.9062C11.3738 3.9375 11.75 4.31367 11.75 4.78125V7.59375C11.75 8.06133 11.3738 8.4375 10.9062 8.4375H7.53125C7.06367 8.4375 6.6875 8.06133 6.6875 7.59375V4.78125ZM13.7188 3.9375H14.8438C15.3113 3.9375 15.6875 4.31367 15.6875 4.78125C15.6875 5.24883 15.3113 5.625 14.8438 5.625H13.7188C13.2512 5.625 12.875 5.24883 12.875 4.78125C12.875 4.31367 13.2512 3.9375 13.7188 3.9375ZM13.7188 6.75H14.8438C15.3113 6.75 15.6875 7.12617 15.6875 7.59375C15.6875 8.06133 15.3113 8.4375 14.8438 8.4375H13.7188C13.2512 8.4375 12.875 8.06133 12.875 7.59375C12.875 7.12617 13.2512 6.75 13.7188 6.75ZM7.53125 9.5625H14.8438C15.3113 9.5625 15.6875 9.93867 15.6875 10.4062C15.6875 10.8738 15.3113 11.25 14.8438 11.25H7.53125C7.06367 11.25 6.6875 10.8738 6.6875 10.4062C6.6875 9.93867 7.06367 9.5625 7.53125 9.5625ZM7.53125 12.375H14.8438C15.3113 12.375 15.6875 12.7512 15.6875 13.2188C15.6875 13.6863 15.3113 14.0625 14.8438 14.0625H7.53125C7.06367 14.0625 6.6875 13.6863 6.6875 13.2188C6.6875 12.7512 7.06367 12.375 7.53125 12.375Z" fill="#F2F2F2"/>
</g>
<defs>
<clipPath id="clip0_46_13">
<rect width="18" height="18" fill="#F2F2F2" transform="translate(0.5)"/>
</clipPath>
</defs>
</svg>
