<svg width="19" height="18" viewBox="0 0 19 18" fill="none" xmlns="http://www.w3.org/2000/svg">
<g clip-path="url(#clip0_39_77)">
<path d="M16.6497 5.33377C16.6611 5.49366 16.6611 5.65358 16.6611 5.81347C16.6611 10.6903 12.9492 16.3097 6.16497 16.3097C4.07486 16.3097 2.13325 15.7043 0.5 14.6536C0.796965 14.6878 1.08247 14.6993 1.39086 14.6993C3.11545 14.6993 4.70303 14.1168 5.9708 13.1231C4.34898 13.0888 2.98984 12.0267 2.52155 10.5647C2.75 10.599 2.97841 10.6218 3.21828 10.6218C3.54949 10.6218 3.88073 10.5761 4.18909 10.4962C2.49874 10.1535 1.23093 8.66879 1.23093 6.87565V6.82998C1.72203 7.10409 2.29314 7.27541 2.89843 7.29823C1.90477 6.63578 1.25379 5.50508 1.25379 4.22589C1.25379 3.54062 1.43649 2.91245 1.75631 2.36422C3.5723 4.6028 6.30201 6.0647 9.36289 6.22463C9.3058 5.95051 9.27152 5.66501 9.27152 5.37947C9.27152 3.34645 10.9162 1.69038 12.9606 1.69038C14.0228 1.69038 14.9822 2.13581 15.656 2.85536C16.4898 2.69547 17.2893 2.38708 17.9974 1.9645C17.7233 2.82111 17.1408 3.54066 16.3756 3.99748C17.118 3.91757 17.8375 3.71194 18.4999 3.42643C17.9975 4.15737 17.3693 4.80836 16.6497 5.33377Z" fill="#F2F2F2"/>
</g>
<defs>
<clipPath id="clip0_39_77">
<rect width="18" height="18" fill="#F2F2F2" transform="translate(0.5)"/>
</clipPath>
</defs>
</svg>
